<?xml version="1.0" encoding="UTF-8" standalone="no"?><!DOCTYPE svg PUBLIC "-//W3C//DTD SVG 1.1//EN" "http://www.w3.org/Graphics/SVG/1.1/DTD/svg11.dtd"><svg width="100%" height="100%" viewBox="0 0 335 80" version="1.1" xmlns="http://www.w3.org/2000/svg" xmlns:xlink="http://www.w3.org/1999/xlink" xml:space="preserve" xmlns:serif="http://www.serif.com/" style="fill-rule:evenodd;clip-rule:evenodd;stroke-linejoin:round;stroke-miterlimit:1.41421;"><path id="Flipkoti-copy-2" serif:id="Flipkoti copy 2" d="M276.544,58.809c10.11,0 18.437,-8.279 18.437,-18.331c0,-10.054 -8.327,-18.332 -18.437,-18.332c-10.111,0 -18.437,8.278 -18.437,18.332c0,10.052 8.326,18.331 18.437,18.331Zm-135.96,-36.073l0,4.14l-20.816,0l0,10.645l20.222,0l0,4.139l-20.222,0l0,16.557l-4.757,0l0,-35.481l25.573,0Zm194.417,0l0,35.481l-4.758,0l0,-35.481l4.758,0Zm-152.63,0l0,35.481l-4.758,0l0,-35.481l4.758,0Zm-29.214,0l0,31.343l19.032,0l0,4.138l-23.79,0l0,-35.481l4.758,0Zm171.657,0l0,4.14l-11.895,0l0,31.341l-4.758,0l0,-31.341l-11.895,0l0,-4.14l28.548,0Zm-117.433,0c8.329,0.002 13.085,5.324 13.085,12.419c0,7.095 -4.758,12.419 -13.085,12.419l-11.894,0l0,10.643l-4.758,0l0,-35.481l16.652,0Zm23.878,0l0,35.481l-4.757,0l0,-35.481l4.757,0Zm25.574,0l-19.031,17.742l19.031,17.739l-7.137,0l-18.437,-17.739l18.437,-17.742l7.137,0Zm19.711,31.934c-7.732,0 -13.679,-6.504 -13.679,-14.192c0,-7.689 5.947,-14.194 13.679,-14.194c7.731,0 13.679,6.505 13.679,14.194c0,7.688 -5.948,14.192 -13.679,14.192Zm-69.757,-11.236c5.354,-0.002 8.921,-3.549 8.921,-8.279c0,-4.731 -3.569,-8.279 -8.921,-8.279l-11.3,0l0,16.558l11.3,0Z" style="fill:#fff;"/><path id="Rectangle-8" serif:id="Rectangle 8" d="M90.063,0l-0.001,80l-90.062,0l0,-80l90.063,0Zm-4.626,4.625l-80.812,0l0,70.75l80.813,0l-0.001,-70.75Z" style="fill:#fff;"/><path id="Rounded-Rectangle-1-copy-13" serif:id="Rounded Rectangle 1 copy 13" d="M54.819,38.145c0.088,-0.245 0.221,-0.478 0.398,-0.688l14.546,-17.938c0.823,-0.979 2.275,-1.098 3.242,-0.265c0.967,0.835 1.083,2.305 0.26,3.285l-14.126,17.422l0.001,0.044l-0.001,0.045l14.126,17.421c0.823,0.98 0.707,2.45 -0.26,3.284c-0.967,0.834 -2.419,0.715 -3.242,-0.265l-14.546,-17.938c-0.176,-0.209 -0.309,-0.441 -0.398,-0.686c-0.483,-0.469 -0.783,-1.13 -0.783,-1.861c0,-0.731 0.3,-1.391 0.783,-1.86Zm-0.844,-19.434c0.716,-0.255 1.536,-0.142 2.172,0.358c0.647,0.399 1.075,1.101 1.075,1.9c0,0.793 -0.423,1.491 -1.062,1.892l-9.95,11.618c-0.25,0.3 -0.558,0.52 -0.894,0.657c-0.378,0.278 -0.842,0.441 -1.348,0.442l-10.037,0c-1.279,0 -2.317,-1.055 -2.317,-2.358c0,-1.302 1.038,-2.357 2.317,-2.357l9.231,0l5.3,-6.19c0.207,-0.799 -0.496,-1.283 -1.208,-1.446l-23.201,0l0,35.723c0,1.3 -1.002,2.354 -2.237,2.354c-1.235,0 -2.236,-1.054 -2.236,-2.354l0,-37.24c0,-0.128 0.01,-0.252 0.031,-0.374c-0.021,-0.12 -0.031,-0.242 -0.031,-0.367c0,-1.248 1.044,-2.258 2.331,-2.258l32.064,0Zm-22.227,27.164c-0.022,-0.122 -0.034,-0.249 -0.034,-0.379c0,-1.246 1.037,-2.258 2.317,-2.258l10.037,0c0.194,0 0.382,0.023 0.561,0.07c0.708,-0.047 1.427,0.231 1.922,0.814l8.994,13.219c0.834,0.983 0.716,2.457 -0.265,3.294c-0.979,0.837 -2.45,0.717 -3.285,-0.265l-8.584,-12.616l-7.243,0l0,11.159c0,1.32 -0.997,2.391 -2.227,2.391c-1.23,0 -2.227,-1.071 -2.227,-2.391l0,-12.639c0,-0.136 0.011,-0.269 0.034,-0.399Z" style="fill:#fff;"/></svg>