<?xml version="1.0" encoding="UTF-8" standalone="no"?><!DOCTYPE svg PUBLIC "-//W3C//DTD SVG 1.1//EN" "http://www.w3.org/Graphics/SVG/1.1/DTD/svg11.dtd"><svg width="100%" height="100%" viewBox="0 0 253 63" version="1.1" xmlns="http://www.w3.org/2000/svg" xmlns:xlink="http://www.w3.org/1999/xlink" xml:space="preserve" xmlns:serif="http://www.serif.com/" style="fill-rule:evenodd;clip-rule:evenodd;stroke-linejoin:round;stroke-miterlimit:1.41421;"><path id="Flipkoti-copy-4" serif:id="Flipkoti copy 4" d="M208.908,46.357c7.583,0 13.828,-6.209 13.828,-13.748c0,-7.541 -6.245,-13.749 -13.828,-13.749c-7.583,0 -13.828,6.208 -13.828,13.749c0,7.539 6.245,13.748 13.828,13.748Zm-101.97,-27.055l0,3.105l-15.612,0l0,7.984l15.166,0l0,3.104l-15.166,0l0,12.418l-3.568,0l0,-26.611l19.18,0Zm145.812,0l0,26.611l-3.568,0l0,-26.611l3.568,0Zm-114.472,0l0,26.611l-3.568,0l0,-26.611l3.568,0Zm-21.91,0l0,23.507l14.273,0l0,3.104l-17.842,0l0,-26.611l3.569,0Zm128.742,0l0,3.105l-8.921,0l0,23.506l-3.568,0l0,-23.506l-8.921,0l0,-3.105l21.41,0Zm-88.074,0c6.246,0.002 9.813,3.993 9.813,9.315c0,5.321 -3.568,9.313 -9.813,9.313l-8.921,0l0,7.983l-3.568,0l0,-26.611l12.489,0Zm17.908,0l0,26.611l-3.568,0l0,-26.611l3.568,0Zm19.181,0l-14.274,13.307l14.274,13.304l-5.353,0l-13.828,-13.304l13.828,-13.307l5.353,0Zm14.783,23.951c-5.799,0 -10.259,-4.878 -10.259,-10.644c0,-5.767 4.46,-10.646 10.259,-10.646c5.799,0 10.259,4.879 10.259,10.646c0,5.766 -4.46,10.644 -10.259,10.644Zm-52.318,-8.428c4.016,-0.001 6.691,-2.661 6.691,-6.208c0,-3.549 -2.676,-6.21 -6.691,-6.21l-8.475,0l0,12.418l8.475,0Z"/><rect id="Rectangle-8-copy-2" serif:id="Rectangle 8 copy 2" x="0" y="0" width="71.25" height="63"/><path id="Rounded-Rectangle-1-copy-15" serif:id="Rounded Rectangle 1 copy 15" d="M43.368,30.04c0.07,-0.194 0.175,-0.377 0.315,-0.543l11.508,-14.125c0.651,-0.772 1.799,-0.865 2.564,-0.209c0.765,0.657 0.858,1.815 0.206,2.586l-11.175,13.721l0,0.034l-0.001,0.035l11.176,13.72c0.652,0.771 0.559,1.928 -0.206,2.585c-0.765,0.657 -1.913,0.564 -2.564,-0.208l-11.508,-14.126c-0.139,-0.165 -0.244,-0.348 -0.315,-0.541c-0.382,-0.369 -0.619,-0.889 -0.619,-1.465c0,-0.576 0.237,-1.096 0.619,-1.464Zm-27.854,-13.238c-0.016,-0.094 -0.024,-0.191 -0.024,-0.289c0,-0.983 0.826,-1.778 1.844,-1.778l26.091,0c0.229,0 0.449,0.04 0.652,0.116c0.14,0.041 0.262,0.098 0.358,0.175c0.502,0.317 0.834,0.864 0.834,1.487c0,0.252 -0.152,0.616 -0.407,0.947c-0.048,0.08 -0.103,0.158 -0.166,0.232l-8.139,9.46c-0.198,0.236 -0.441,0.41 -0.707,0.517c-0.299,0.22 -0.666,0.348 -1.066,0.349l-7.941,0c-1.012,0 -1.832,-0.831 -1.832,-1.857c0,-1.026 0.82,-1.857 1.832,-1.857l7.303,0l4.193,-4.874c0.164,-0.629 -0.392,-1.01 -0.956,-1.139l-18.355,0l0,28.132c0,1.024 -0.792,1.854 -1.769,1.854c-0.977,0 -1.769,-0.83 -1.769,-1.854l0,-29.327c0,-0.1 0.008,-0.198 0.024,-0.294Zm9.602,19.325c-0.017,-0.097 -0.026,-0.197 -0.026,-0.299c0,-0.981 0.82,-1.778 1.832,-1.778l7.941,0c0.153,0 0.302,0.018 0.443,0.055c0.56,-0.038 1.129,0.182 1.521,0.641l7.115,10.41c0.66,0.774 0.567,1.935 -0.209,2.594c-0.775,0.659 -1.939,0.565 -2.599,-0.208l-6.79,-9.936l-5.731,0l0,8.788c0,1.039 -0.789,1.883 -1.762,1.883c-0.973,0 -1.762,-0.844 -1.762,-1.883l0,-9.953c0,-0.107 0.009,-0.212 0.027,-0.314Z" style="fill:#fff;"/></svg>