<svg xmlns="http://www.w3.org/2000/svg" xmlns:xlink="http://www.w3.org/1999/xlink" width="598" height="559" viewBox="0 0 598 559">
  <defs>
    <style>
      .cls-1, .cls-6, .cls-7, .cls-8 {
        font-size: 13px;
      }

      .cls-1, .cls-6, .cls-7, .cls-8, .cls-9 {
        text-anchor: middle;
      }

      .cls-1, .cls-6, .cls-8, .cls-9 {
        font-family: Montserrat;
        text-transform: uppercase;
      }

      .cls-1 {
        font-weight: 600;
      }

      .cls-2, .cls-3, .cls-5 {
        fill: none;
        stroke: #cee1ef;
        stroke-width: 5px;
      }

      .cls-2, .cls-5 {
        stroke-linecap: round;
      }

      .cls-10, .cls-2, .cls-4, .cls-5 {
        fill-rule: evenodd;
      }

      .cls-4 {
        fill: #7aa7c8;
      }

      .cls-5 {
        stroke-linejoin: round;
      }

      .cls-6, .cls-8, .cls-9 {
        fill: #010000;
      }

      .cls-6, .cls-8 {
        font-weight: 500;
      }

      .cls-9 {
        font-size: 11.725px;
        font-weight: 700;
      }

      .cls-10 {
        fill: #a2bccf;
      }
    </style>
    <path id="text-path"/>
  </defs>
  <text id="Digitaaliset_työkalut" data-name="Digitaaliset työkalut" class="cls-1" x="83" y="518"><tspan x="83">Digitaaliset työkalut</tspan></text>
  <text id="Kilpailutus" class="cls-1" x="148" y="482"><tspan x="148">Kilpailutus</tspan></text>
  <path id="Rounded_Rectangle_5" data-name="Rounded Rectangle 5" class="cls-2" d="M275,410l0.085,86.581c0,33.976-27.655,58.519-61.77,58.519L151,555"/>
  <path id="Rounded_Rectangle_5_copy" data-name="Rounded Rectangle 5 copy" class="cls-2" d="M322.094,409l-0.085,86.52c0,33.958,27.634,58.487,61.723,58.487l62.268-.1"/>
  <path id="Rounded_Rectangle_5_copy_2" data-name="Rounded Rectangle 5 copy 2" class="cls-2" d="M322.363,417L322.3,465.482A47.181,47.181,0,0,0,369.441,512.7L417,512.624"/>
  <path id="Rounded_Rectangle_5_copy_3" data-name="Rounded Rectangle 5 copy 3" class="cls-2" d="M274.94,418l0.065,48.662a47.319,47.319,0,0,1-47.294,47.344L180,513.928"/>
  <path id="Rounded_Rectangle_5_copy_4" data-name="Rounded Rectangle 5 copy 4" class="cls-2" d="M275,419l0,11.663a47.319,47.319,0,0,1-47.294,47.344L203,478"/>
  <path id="Rounded_Rectangle_5_copy_5" data-name="Rounded Rectangle 5 copy 5" class="cls-2" d="M322,418l0,11.662a47.319,47.319,0,0,0,47.294,47.344L394,477"/>
  <text id="Projektinjohto" class="cls-1" x="493" y="516"><tspan x="493">Projektinjohto</tspan></text>
  <text id="Sopimukset" class="cls-1" x="96" y="559"><tspan x="96">Sopimukset</tspan></text>
  <text id="Kommunikaatio" class="cls-1" x="469" y="480"><tspan x="469">Kommunikaatio</tspan></text>
  <text id="Kirjanpito" class="cls-1" x="499" y="557"><tspan x="499">Kirjanpito</tspan></text>
  <circle class="cls-3" cx="298.703" cy="207.531" r="136.891"/>
  <path id="Forma_1" data-name="Forma 1" class="cls-4" d="M290.25,168.29h1.833v1.829H290.25V168.29Zm0,3.658h1.833v1.829H290.25v-1.829Zm0,3.658h1.833v1.829H290.25v-1.829Zm0,3.658h1.833v1.829H290.25v-1.829Zm3.667-10.974h1.833v1.829h-1.833V168.29Zm0,3.658h1.833v1.829h-1.833v-1.829Zm0,3.658h1.833v1.829h-1.833v-1.829Zm0,3.658h1.833v1.829h-1.833v-1.829Zm3.666-10.974h1.834v1.829h-1.834V168.29Zm0,3.658h1.834v1.829h-1.834v-1.829Zm0,3.658h1.834v1.829h-1.834v-1.829Zm0,3.658h1.834v1.829h-1.834v-1.829Zm3.667-10.974h1.833v1.829H301.25V168.29Zm-7.333-3.658h1.833v1.829h-1.833v-1.829Zm3.666,0h1.834v1.829h-1.834v-1.829Zm3.667,0h1.833v1.829H301.25v-1.829Zm0,7.316h1.833v1.829H301.25v-1.829Zm0,3.658h1.833v1.829H301.25v-1.829Zm0,3.658h1.833v1.829H301.25v-1.829Zm3.667-10.974h1.833v1.829h-1.833V168.29Zm0,3.658h1.833v1.829h-1.833v-1.829Zm0,3.658h1.833v1.829h-1.833v-1.829Zm0,3.658h1.833v1.829h-1.833v-1.829Zm20.167-15.546H311.333v-12.8a0.915,0.915,0,0,0-.915-0.914H286.583a0.914,0.914,0,0,0-.916.913h0v12.8h-13.75a0.915,0.915,0,0,0-.917.913h0v32.922a0.916,0.916,0,0,0,.916.915h1.917a5.479,5.479,0,0,0-.083.914v3.7a0.915,0.915,0,0,0,.916.914h47.667a0.915,0.915,0,0,0,.917-0.913h0v-3.7a5.479,5.479,0,0,0-.083-0.914h1.916a0.916,0.916,0,0,0,.917-0.914h0V164.632A0.915,0.915,0,0,0,325.084,163.718Zm-14.668,25.605a1.833,1.833,0,1,1-1.833-1.829A1.83,1.83,0,0,1,310.416,189.323Zm-22-1.829a1.829,1.829,0,1,1-1.834,1.829A1.831,1.831,0,0,1,288.417,187.494Zm-5.5,14.676h-7.333v-2.787a3.667,3.667,0,0,1,7.333,0v2.787Zm-5.5-10.1a1.833,1.833,0,1,1,1.833,1.829A1.831,1.831,0,0,1,277.417,192.067Zm5.639,3.363a5.588,5.588,0,0,0-1.153-.851,3.663,3.663,0,1,0-5.305,0,5.535,5.535,0,0,0-2.1,2.06h-1.66V165.546h12.833v21.383a3.6,3.6,0,0,0,.1,4.907A5.5,5.5,0,0,0,283.056,195.43Zm9.027,6.74H284.75v-5.53a3.667,3.667,0,0,1,7.333,0v5.53Zm11,0h-9.166v-5.53a4.583,4.583,0,0,1,9.166,0v5.53Zm-7.333-14.676a2.75,2.75,0,1,1,2.75,2.744A2.746,2.746,0,0,1,295.75,187.494Zm8.333,6a6.454,6.454,0,0,0-2.63-2.533,4.577,4.577,0,1,0-6.459-.552,4.505,4.505,0,0,0,.553.552,6.454,6.454,0,0,0-2.63,2.533,5.528,5.528,0,0,0-1.848-1.659,3.633,3.633,0,0,0-3.569-6.04V151.829h22V185.8a3.556,3.556,0,0,0-.917-0.13,3.647,3.647,0,0,0-2.652,6.17A5.528,5.528,0,0,0,304.083,193.5Zm8.167,5.888v2.787h-7.333v-5.53a3.667,3.667,0,0,1,7.333,0v2.743Zm9.166,2.787h-7.333v-2.787a3.667,3.667,0,0,1,7.333,0v2.787Zm-5.5-10.1a1.834,1.834,0,1,1,1.834,1.829A1.832,1.832,0,0,1,315.916,192.067Zm8.25,4.573h-1.66a5.53,5.53,0,0,0-2.1-2.061,3.663,3.663,0,1,0-5.305,0,5.588,5.588,0,0,0-1.153.851,5.5,5.5,0,0,0-2.708-3.594,3.6,3.6,0,0,0,.1-4.907V165.546h12.833V196.64h0Zm-10.083-25.607h1.833v14.633h-1.833V171.033Zm5.5,0h1.833v14.633h-1.833V171.033Zm-44,0h1.833v14.633h-1.833V171.033Zm5.5,0h1.834v14.633h-1.834V171.033ZM304,153.657H293a0.917,0.917,0,0,0-.917.915h0v7.316a0.916,0.916,0,0,0,.916.915h11a0.916,0.916,0,0,0,.917-0.914h0v-7.316A0.917,0.917,0,0,0,304,153.657Zm-0.918,7.317h-9.166v-5.488h9.166v5.488Z"/>
  <path id="Ellipse_4_copy" data-name="Ellipse 4 copy" class="cls-5" d="M479.076,109.835a198.581,198.581,0,0,1-.7,208.466M129.2,324.757a197.506,197.506,0,0,1-16.095-211.445m92.569-87.684a199.219,199.219,0,0,1,187.439,1.137"/>
  <path id="Ellipse_4_copy_2" data-name="Ellipse 4 copy 2" class="cls-5" d="M206.231,387.407a199.466,199.466,0,0,0,187.439-1.135"/>
  <text id="Ylläpito_" data-name="Ylläpito    " class="cls-6" transform="translate(298.445 52.338) scale(1.11 1.109)"><tspan x="0">Ylläpito</tspan></text>
  <text class="cls-7" transform="matrix(-0.028, -1.108, 1.11, -0.028, 0, 0)"><textPath startOffset="50%" xlink:href="#text-path"><tspan class="cls-8" x="0">Remontit</tspan></textPath></text>
  <text id="Hallinto" class="cls-6" transform="translate(299.555 371.977) scale(1.11 1.109)"><tspan x="0">Hallinto</tspan></text>
  <text class="cls-7" transform="scale(1.11 1.109)"><textPath startOffset="50%" xlink:href="#text-path"><tspan class="cls-8" x="0">Huolto</tspan></textPath></text>
  <text id="Taloyhtiön_hallitus_ja_osakkaat" data-name="Taloyhtiön hallitus ja  osakkaat" class="cls-9" transform="translate(298.445 230.56) scale(1.11 1.109)"><tspan x="0">Taloyhtiön hallitus ja </tspan><tspan x="0" dy="14.07">osakkaat</tspan></text>
  <path id="Forma_1-2" data-name="Forma 1" class="cls-10" d="M139.868,79.59a3.548,3.548,0,0,1-.425-5.03l3-3.529-1.686-1.407-3,3.529a5.72,5.72,0,0,0,.687,8.113,5.854,5.854,0,0,0,8.189-.711l3-3.529-1.687-1.406-3,3.529A3.632,3.632,0,0,1,139.868,79.59Zm2.189-4.358,9.355-10.311,1.775,1.481-9.355,10.31Zm7.393-14.967-3,3.529,1.686,1.406,3-3.529a3.63,3.63,0,0,1,5.077-.441,3.548,3.548,0,0,1,.426,5.03l-3,3.53,1.687,1.406,3-3.529a5.72,5.72,0,0,0-.686-8.113A5.855,5.855,0,0,0,149.45,60.265Z"/>
  <path id="Forma_1_copy_2" data-name="Forma 1 copy 2" class="cls-10" d="M171.733,367.882a3.548,3.548,0,0,0-.2-5.044l-3.417-3.129,1.5-1.605,3.417,3.13a5.718,5.718,0,0,1,.327,8.134,5.854,5.854,0,0,1-8.214.312l-3.417-3.13,1.5-1.605,3.417,3.13A3.632,3.632,0,0,0,171.733,367.882Zm-2.713-4.053-10.565-9.07-1.577,1.689,10.564,9.071Zm-9.2-13.934,3.417,3.13-1.5,1.605-3.416-3.13a3.633,3.633,0,0,0-5.094.193,3.55,3.55,0,0,0,.2,5.044l3.417,3.13-1.5,1.6-3.417-3.129a5.721,5.721,0,0,1-.328-8.136A5.857,5.857,0,0,1,159.823,349.9Z"/>
  <path id="Forma_1_copy_3" data-name="Forma 1 copy 3" class="cls-10" d="M431.551,368.729a3.7,3.7,0,0,1,.117-5.137l3.308-3.241-1.5-1.61-3.308,3.24a5.969,5.969,0,0,0-.188,8.287,5.617,5.617,0,0,0,8.081.187l3.308-3.241-1.5-1.61-3.308,3.241A3.485,3.485,0,0,1,431.551,368.729Zm2.6-4.168,10.237-9.4,1.579,1.695-10.237,9.4Zm8.812-14.332-3.307,3.241,1.5,1.61,3.308-3.241a3.485,3.485,0,0,1,5.01.116,3.7,3.7,0,0,1-.116,5.138l-3.308,3.24,1.5,1.61,3.307-3.24a5.969,5.969,0,0,0,.189-8.287A5.619,5.619,0,0,0,442.964,350.229Z"/>
  <path id="Forma_1_copy" data-name="Forma 1 copy" class="cls-10" d="M450.747,79.233a3.548,3.548,0,0,0,.21-5.043l-3.149-3.4,1.625-1.477,3.149,3.4a5.72,5.72,0,0,1-.339,8.135,5.856,5.856,0,0,1-8.213-.36l-3.149-3.4,1.625-1.477,3.149,3.4A3.632,3.632,0,0,0,450.747,79.233Zm-2.373-4.261-9.787-9.9-1.711,1.555,9.787,9.9Zm-8.026-14.638,3.15,3.4-1.625,1.477-3.15-3.4a3.632,3.632,0,0,0-5.092-.224,3.549,3.549,0,0,0-.21,5.043l3.15,3.4-1.625,1.478-3.15-3.4a5.72,5.72,0,0,1,.339-8.135A5.856,5.856,0,0,1,440.348,60.334Z"/>
</svg>
